<?xml version="1.0" ?><svg viewBox="0 0 512 512" xmlns="http://www.w3.org/2000/svg"><title/><g data-name="1" id="_1"><path d="M371.43,450H142.56a50.17,50.17,0,0,1-50.11-50.11V98.11A50.17,50.17,0,0,1,142.56,48h150.1a15,15,0,0,1,10.61,4.39L417.15,166.27a15,15,0,0,1,4.39,10.61v223A50.17,50.17,0,0,1,371.43,450ZM142.56,78a20.13,20.13,0,0,0-20.11,20.11V399.89A20.13,20.13,0,0,0,142.56,420H371.43a20.13,20.13,0,0,0,20.11-20.11V183.09L286.45,78Z"/><path d="M406.54,191.88H327.77a50.17,50.17,0,0,1-50.11-50.11V63a15,15,0,0,1,30,0v78.77a20.13,20.13,0,0,0,20.11,20.11h78.77a15,15,0,1,1,0,30Z"/><path d="M179.83,261.14c18.26,0,32.56,8.47,32.56,31.24v34.29c0,22.76-14.3,31.23-32.56,31.23H156.4c-5.43,0-9-2.91-9-6.22V267.36c0-3.31,3.57-6.22,9-6.22Zm-11.78,18V339.9h11.78c7.41,0,11.91-4.23,11.91-13.23V292.38c0-9-4.5-13.24-11.91-13.24Z"/><path d="M224.43,327.46V292.38c0-22.77,14.17-31.24,32.43-31.24s32.57,8.47,32.57,31.24v35.08c0,22.77-14.3,31.24-32.57,31.24S224.43,350.23,224.43,327.46Zm44.35-35.08c0-9.13-4.5-13.24-11.92-13.24s-11.78,4.11-11.78,13.24v35.08c0,9.13,4.37,13.24,11.78,13.24s11.92-4.11,11.92-13.24Z"/><path d="M334.17,279.14c-7.55,0-11.92,4.24-11.92,13.24v35.08c0,9,4.37,13.24,12.05,13.24,10.59,0,11.25-8.08,11.65-13.24.39-4.9,4.9-6.22,10.19-6.22,7.15,0,10.46,1.85,10.46,9.79,0,17.61-14.3,27.67-33.23,27.67-17.34,0-31.77-8.47-31.77-31.24V292.38c0-22.77,14.43-31.24,31.77-31.24,18.93,0,33.23,9.53,33.23,26.34,0,7.95-3.31,9.8-10.33,9.8-5.56,0-10.06-1.46-10.32-6.22C345.82,287.62,345.42,279.14,334.17,279.14Z"/></g></svg>