<?xml version="1.0" ?><svg viewBox="0 0 512 512" xmlns="http://www.w3.org/2000/svg"><title/><g data-name="1" id="_1"><path d="M369.43,450H140.56a50.17,50.17,0,0,1-50.11-50.11V98.11A50.17,50.17,0,0,1,140.56,48h150.1a15,15,0,0,1,10.61,4.39L415.15,166.27a15,15,0,0,1,4.39,10.61v223A50.17,50.17,0,0,1,369.43,450ZM140.56,78a20.13,20.13,0,0,0-20.11,20.11V399.89A20.13,20.13,0,0,0,140.56,420H369.43a20.13,20.13,0,0,0,20.11-20.11V183.09L284.45,78Z"/><path d="M404.54,191.88H325.77a50.17,50.17,0,0,1-50.11-50.11V63a15,15,0,0,1,30,0v78.77a20.13,20.13,0,0,0,20.11,20.11h78.77a15,15,0,1,1,0,30Z"/><path d="M201.06,279.14c-7.55,0-11.92,4.24-11.92,13.24v35.08c0,9,4.37,13.24,11.79,13.24s11.91-4.24,11.91-13.24V323H205c-4,0-6.22-3.84-6.22-7.94,0-3.84,2.25-7.95,6.22-7.95h22.24c4,0,6.22,3.05,6.22,6.49v13.9c0,22.77-14.3,31.24-32.56,31.24s-32.44-8.47-32.44-31.24V292.38c0-22.77,14.43-31.24,31.77-31.24,18.93,0,33.23,9.53,33.23,26.34,0,7.95-3.31,9.8-10.33,9.8-5.56,0-10.19-1.46-10.32-6.22S212.31,279.14,201.06,279.14Z"/><path d="M245.4,267.36c0-4.36,5.16-6.22,10.32-6.22s10.33,1.86,10.33,6.22v84.19c0,4.24-5.16,6.35-10.33,6.35s-10.32-2.11-10.32-6.35Z"/><path d="M280.34,267.5c0-4.24,4.5-6.36,9-6.36h45.94c4.37,0,6.22,4.64,6.22,8.87,0,4.9-2.25,9.13-6.22,9.13H301v22.38h20c4,0,6.22,3.83,6.22,8.07,0,3.57-1.85,7.81-6.22,7.81H301v34.15c0,4.24-5.16,6.35-10.32,6.35s-10.33-2.11-10.33-6.35Z"/></g></svg>