<?xml version="1.0" ?><svg viewBox="0 0 512 512" xmlns="http://www.w3.org/2000/svg"><title/><g data-name="1" id="_1"><path d="M393.43,450H164.56a50.17,50.17,0,0,1-50.11-50.11V98.11A50.17,50.17,0,0,1,164.56,48h150.1a15,15,0,0,1,10.61,4.39L439.15,166.27a15,15,0,0,1,4.39,10.61v223A50.17,50.17,0,0,1,393.43,450ZM164.56,78a20.13,20.13,0,0,0-20.11,20.11V399.89A20.13,20.13,0,0,0,164.56,420H393.43a20.13,20.13,0,0,0,20.11-20.11V183.09L308.45,78Z"/><path d="M428.54,191.88H349.77a50.17,50.17,0,0,1-50.11-50.11V63a15,15,0,0,1,30,0v78.77a20.13,20.13,0,0,0,20.11,20.11h78.77a15,15,0,1,1,0,30Z"/><path d="M202.75,279.14c-4,0-6.22-4.23-6.22-9.13,0-4.23,1.86-8.87,6.22-8.87h23.17c4.5,0,9,2.12,9,6.36v60c0,22.77-14.43,31.24-31.77,31.24-18.93,0-33.22-10.06-33.22-27.67,0-7.94,3.31-9.79,10.45-9.79,5.3,0,9.8,1.32,10.2,6.22.39,5.16,1.06,13.24,11.64,13.24,7.68,0,12.05-4.24,12.05-13.24V279.14Z"/><path d="M248.82,267.36c0-3.31,3-6.22,7.67-6.22H283.9c17.47,0,31.23,8.21,31.23,30.45v.66c0,22.24-14.29,30.71-32.56,30.71h-13.1v28.59c0,4.24-5.17,6.35-10.33,6.35s-10.32-2.11-10.32-6.35Zm20.65,11.78v27.93h13.1c7.41,0,11.91-4.23,11.91-13.23v-1.46c0-9-4.5-13.24-11.91-13.24Z"/><path d="M355.64,279.14c-7.55,0-11.92,4.24-11.92,13.24v35.08c0,9,4.37,13.24,11.78,13.24s11.92-4.24,11.92-13.24V323h-7.81c-4,0-6.22-3.84-6.22-7.94,0-3.84,2.25-7.95,6.22-7.95h22.24c4,0,6.22,3.05,6.22,6.49v13.9c0,22.77-14.3,31.24-32.57,31.24s-32.43-8.47-32.43-31.24V292.38c0-22.77,14.43-31.24,31.77-31.24,18.93,0,33.23,9.53,33.23,26.34,0,7.95-3.31,9.8-10.33,9.8-5.56,0-10.19-1.46-10.32-6.22S366.89,279.14,355.64,279.14Z"/></g></svg>