<?xml version="1.0" ?><svg viewBox="0 0 512 512" xmlns="http://www.w3.org/2000/svg"><title/><g data-name="1" id="_1"><path d="M381.43,450H152.56a50.17,50.17,0,0,1-50.11-50.11V98.11A50.17,50.17,0,0,1,152.56,48h150.1a15,15,0,0,1,10.61,4.39L427.15,166.27a15,15,0,0,1,4.39,10.61v223A50.17,50.17,0,0,1,381.43,450ZM152.56,78a20.13,20.13,0,0,0-20.11,20.11V399.89A20.13,20.13,0,0,0,152.56,420H381.43a20.13,20.13,0,0,0,20.11-20.11V183.09L296.45,78Z"/><path d="M416.54,191.88H337.77a50.17,50.17,0,0,1-50.11-50.11V63a15,15,0,0,1,30,0v78.77a20.13,20.13,0,0,0,20.11,20.11h78.77a15,15,0,1,1,0,30Z"/><path d="M198.83,323.62a7.59,7.59,0,0,1-6.88,3.84,6.78,6.78,0,0,1-6.49-3.84l-12.58-23v51c0,4.24-5.16,6.35-10.32,6.35s-10.32-2.11-10.32-6.35V271.47c0-7.55,5.16-10.33,10.32-10.33,7.41,0,10.59.8,16,10.33l13.63,23.82,13.63-23.82c5.43-9.53,8.61-10.33,16-10.33,5.3,0,10.33,2.78,10.33,10.33v80.08c0,4.24-5.17,6.35-10.33,6.35s-10.32-2.11-10.32-6.35V301.91Z"/><path d="M246.48,267.36c0-3.31,3-6.22,7.68-6.22h27.4c17.47,0,31.24,8.21,31.24,30.45v.66c0,22.24-14.3,30.71-32.57,30.71h-13.1v28.59c0,4.24-5.16,6.35-10.33,6.35s-10.32-2.11-10.32-6.35Zm20.65,11.78v27.93h13.1c7.42,0,11.92-4.23,11.92-13.23v-1.46c0-9-4.5-13.24-11.92-13.24Z"/><path d="M361.11,328.78v-2.51c0-8.87-5.43-10.59-12.71-10.59-4.5,0-5.95-4-5.95-7.94s1.45-7.95,5.95-7.95c5,0,10.33-.66,10.33-11.38,0-7.68-4.37-9.53-9.8-9.53-6.48,0-9.79,1.59-9.79,6.75,0,4.5-2,7.55-9.67,7.55-9.53,0-10.72-2-10.72-8.34,0-10.33,7.41-23.7,30.18-23.7,16.81,0,29.52,6.09,29.52,24,0,9.66-3.57,18.67-10.19,21.71,7.81,2.91,13.5,8.74,13.5,19.46v2.51c0,21.71-15,29.92-33.49,29.92-22.77,0-31.51-13.9-31.51-25,0-6,2.52-7.54,9.8-7.54,8.47,0,10.59,1.85,10.59,6.88,0,6.22,5.82,7.68,11.78,7.68C357.93,340.7,361.11,337.39,361.11,328.78Z"/></g></svg>