<?xml version="1.0" ?><svg viewBox="0 0 512 512" xmlns="http://www.w3.org/2000/svg"><title/><g data-name="1" id="_1"><path d="M391.89,450H163a50.17,50.17,0,0,1-50.11-50.11V98.11A50.17,50.17,0,0,1,163,48h150.1a15,15,0,0,1,10.61,4.39L437.61,166.27A15,15,0,0,1,442,176.88v223A50.17,50.17,0,0,1,391.89,450ZM163,78a20.13,20.13,0,0,0-20.11,20.11V399.89A20.13,20.13,0,0,0,163,420H391.89A20.13,20.13,0,0,0,412,399.89V183.09L306.91,78Z"/><path d="M427,191.88H348.23a50.17,50.17,0,0,1-50.11-50.11V63a15,15,0,0,1,30,0v78.77a20.13,20.13,0,0,0,20.11,20.11H427a15,15,0,0,1,0,30Z"/></g></svg>