<?xml version="1.0" ?><svg viewBox="0 0 512 512" xmlns="http://www.w3.org/2000/svg"><title/><g data-name="1" id="_1"><path d="M369.43,450H140.56a50.17,50.17,0,0,1-50.11-50.11V98.11A50.17,50.17,0,0,1,140.56,48h150.1a15,15,0,0,1,10.61,4.39L415.15,166.27a15,15,0,0,1,4.39,10.61v223A50.17,50.17,0,0,1,369.43,450ZM140.56,78a20.13,20.13,0,0,0-20.11,20.11V399.89A20.13,20.13,0,0,0,140.56,420H369.43a20.13,20.13,0,0,0,20.11-20.11V183.09L284.45,78Z"/><path d="M404.54,191.88H325.77a50.17,50.17,0,0,1-50.11-50.11V63a15,15,0,0,1,30,0v78.77a20.13,20.13,0,0,0,20.11,20.11h78.77a15,15,0,1,1,0,30Z"/><path d="M144.41,267.36c0-3.31,3-6.22,7.67-6.22h27.4c17.48,0,31.24,8.21,31.24,30.45v.66c0,22.24-14.29,30.71-32.56,30.71H165.05v28.59c0,4.24-5.16,6.35-10.32,6.35s-10.32-2.11-10.32-6.35Zm20.64,11.78v27.93h13.11c7.41,0,11.91-4.23,11.91-13.23v-1.46c0-9-4.5-13.24-11.91-13.24Z"/><path d="M265.52,352.35l-25.15-45.8v45c0,4.24-5.16,6.35-10.32,6.35s-10.33-2.11-10.33-6.35V267.5c0-4.37,5.16-6.36,10.33-6.36,7.41,0,10.19.66,15.22,10.33l21.44,40.9v-45c0-4.36,5.16-6.22,10.33-6.22s10.32,1.86,10.32,6.22v84.19c0,4.24-5.16,6.35-10.32,6.35C272.27,357.9,268,357,265.52,352.35Z"/><path d="M333.16,279.14c-7.55,0-11.92,4.24-11.92,13.24v35.08c0,9,4.37,13.24,11.79,13.24s11.91-4.24,11.91-13.24V323h-7.81c-4,0-6.22-3.84-6.22-7.94,0-3.84,2.25-7.95,6.22-7.95h22.24c4,0,6.22,3.05,6.22,6.49v13.9c0,22.77-14.3,31.24-32.56,31.24s-32.43-8.47-32.43-31.24V292.38c0-22.77,14.42-31.24,31.76-31.24,18.93,0,33.23,9.53,33.23,26.34,0,7.95-3.31,9.8-10.33,9.8-5.56,0-10.19-1.46-10.32-6.22S344.41,279.14,333.16,279.14Z"/></g></svg>