<?xml version="1.0" ?><svg viewBox="0 0 512 512" xmlns="http://www.w3.org/2000/svg"><title/><g data-name="1" id="_1"><path d="M371.43,450H142.56a50.17,50.17,0,0,1-50.11-50.11V98.11A50.17,50.17,0,0,1,142.56,48h150.1a15,15,0,0,1,10.61,4.39L417.15,166.27a15,15,0,0,1,4.39,10.61v223A50.17,50.17,0,0,1,371.43,450ZM142.56,78a20.13,20.13,0,0,0-20.11,20.11V399.89A20.13,20.13,0,0,0,142.56,420H371.43a20.13,20.13,0,0,0,20.11-20.11V183.09L286.45,78Z"/><path d="M406.54,191.88H327.77a50.17,50.17,0,0,1-50.11-50.11V63a15,15,0,0,1,30,0v78.77a20.13,20.13,0,0,0,20.11,20.11h78.77a15,15,0,1,1,0,30Z"/><path d="M151.57,267.36c0-3.31,3-6.22,7.67-6.22h27.4c17.48,0,31.24,8.21,31.24,30.45v.66c0,22.24-14.29,30.71-32.56,30.71h-13.1v28.59c0,4.24-5.17,6.35-10.33,6.35s-10.32-2.11-10.32-6.35Zm20.65,11.78v27.93h13.1c7.41,0,11.91-4.23,11.91-13.23v-1.46c0-9-4.5-13.24-11.91-13.24Z"/><path d="M266.59,332c0-16-42-13.24-42-44.21,0-19.86,17.34-27.4,33.89-27.4,7,0,26.34,1.32,26.34,11.65,0,3.57-2.38,10.85-8.21,10.85-4.76,0-7.28-5-18.13-5-9.4,0-13.24,3.84-13.24,7.94,0,13.24,42,10.73,42,44.08,0,19.06-13.9,29.39-33.09,29.39-17.34,0-31.9-8.47-31.9-17.21,0-4.5,4-11.12,9-11.12,6.22,0,10.19,9.8,22.5,9.8C259.84,340.7,266.59,338.31,266.59,332Z"/><path d="M329.86,261.14c18.27,0,32.57,8.47,32.57,31.24v34.29c0,22.76-14.3,31.23-32.57,31.23H306.43c-5.42,0-9-2.91-9-6.22V267.36c0-3.31,3.58-6.22,9-6.22Zm-11.78,18V339.9h11.78c7.42,0,11.92-4.23,11.92-13.23V292.38c0-9-4.5-13.24-11.92-13.24Z"/></g></svg>