<?xml version="1.0" ?><svg viewBox="0 0 512 512" xmlns="http://www.w3.org/2000/svg"><title/><g data-name="1" id="_1"><path d="M361.43,450H132.56a50.17,50.17,0,0,1-50.11-50.11V98.11A50.17,50.17,0,0,1,132.56,48h150.1a15,15,0,0,1,10.61,4.39L407.15,166.27a15,15,0,0,1,4.39,10.61v223A50.17,50.17,0,0,1,361.43,450ZM132.56,78a20.13,20.13,0,0,0-20.11,20.11V399.89A20.13,20.13,0,0,0,132.56,420H361.43a20.13,20.13,0,0,0,20.11-20.11V183.09L276.45,78Z"/><path d="M396.54,191.88H317.77a50.17,50.17,0,0,1-50.11-50.11V63a15,15,0,0,1,30,0v78.77a20.13,20.13,0,0,0,20.11,20.11h78.77a15,15,0,1,1,0,30Z"/><path d="M135.54,274a5.2,5.2,0,0,1,5.36-5.25H164c15.3,0,27.47,5.7,27.47,23.9,0,12.51-5.69,19.66-13.51,22.68L191.61,340a3.71,3.71,0,0,1,.55,2c0,4.35-5.8,9-10.94,9a5.94,5.94,0,0,1-5.58-3.24l-15.3-29.7H153V345c0,3.58-4.35,5.36-8.71,5.36s-8.71-1.78-8.71-5.36ZM153,283.89v20.78H164c6.25,0,10-2.57,10-10.39s-3.8-10.39-10-10.39Z"/><path d="M195.18,343.19a5.76,5.76,0,0,1,.22-1.22l20.77-68.13c1.23-3.91,6.26-5.8,11.4-5.8s10.16,1.89,11.39,5.8L259.84,342a5.76,5.76,0,0,1,.22,1.22c0,4.14-6.36,7.15-11.16,7.15-2.8,0-5-.89-5.7-3.24l-3.8-14H215.84l-3.8,14c-.67,2.35-2.9,3.24-5.69,3.24C201.54,350.34,195.18,347.33,195.18,343.19Zm40.54-23.45-8.15-29.93-8.16,29.93Z"/><path d="M336,345.2c-1.34,3.91-6.36,5.81-11.5,5.81s-10.39-1.9-11.28-5.81l-5.81-26.46-5.8,26.46c-.9,3.91-6.26,5.81-11.28,5.81s-10.28-1.9-11.51-5.81L256.6,277.08a5,5,0,0,1-.22-1.45c0-3.8,6.25-6.93,11.28-6.93,2.68,0,4.91.9,5.58,3.24l17,57.29L299,291.49c.67-3,4.58-4.58,8.37-4.58s7.71,1.56,8.38,4.58l8.82,37.74,17-57.29c.67-2.34,2.9-3.24,5.58-3.24,5,0,11.28,3.13,11.28,6.93a5,5,0,0,1-.22,1.45Z"/></g></svg>