<?xml version="1.0" ?><svg viewBox="0 0 512 512" xmlns="http://www.w3.org/2000/svg"><title/><g data-name="1" id="_1"><path d="M390.83,450H162a50.17,50.17,0,0,1-50.11-50.11V98.11A50.17,50.17,0,0,1,162,48h150.1a15,15,0,0,1,10.61,4.39L436.55,166.27a15,15,0,0,1,4.39,10.61v223A50.17,50.17,0,0,1,390.83,450ZM162,78a20.13,20.13,0,0,0-20.11,20.11V399.89A20.13,20.13,0,0,0,162,420H390.83a20.13,20.13,0,0,0,20.11-20.11V183.09L305.85,78Z"/><path d="M425.94,191.88H347.17a50.17,50.17,0,0,1-50.11-50.11V63a15,15,0,0,1,30,0v78.77a20.13,20.13,0,0,0,20.11,20.11h78.77a15,15,0,0,1,0,30Z"/><path d="M235.46,359.76a15,15,0,0,1-15-15V227.14a15,15,0,0,1,22.5-13L344.83,273a15,15,0,0,1,0,26L243,357.75A15,15,0,0,1,235.46,359.76Zm15-106.64v65.66L307.33,286Z"/></g></svg>