<?xml version="1.0" ?><svg viewBox="0 0 512 512" xmlns="http://www.w3.org/2000/svg"><title/><g data-name="1" id="_1"><path d="M371.43,450H142.56a50.17,50.17,0,0,1-50.11-50.11V98.11A50.17,50.17,0,0,1,142.56,48h150.1a15,15,0,0,1,10.61,4.39L417.15,166.27a15,15,0,0,1,4.39,10.61v223A50.17,50.17,0,0,1,371.43,450ZM142.56,78a20.13,20.13,0,0,0-20.11,20.11V399.89A20.13,20.13,0,0,0,142.56,420H371.43a20.13,20.13,0,0,0,20.11-20.11V183.09L286.45,78Z"/><path d="M406.54,191.88H327.77a50.17,50.17,0,0,1-50.11-50.11V63a15,15,0,0,1,30,0v78.77a20.13,20.13,0,0,0,20.11,20.11h78.77a15,15,0,1,1,0,30Z"/><path d="M190.15,323.75l-19.32,32.83c-.93,1.46-2.78,2.12-4.9,2.12-5.69,0-13.77-4.5-13.77-10.19a7.2,7.2,0,0,1,1.19-3.71l22.9-35.34-22-35.21a7.47,7.47,0,0,1-1.32-4.11c0-5.56,7.54-9.79,13.37-9.79a6.45,6.45,0,0,1,6.22,3.44l17.6,30.71,17.61-30.71a6.44,6.44,0,0,1,6.22-3.44c5.82,0,13.37,4.23,13.37,9.79a7.49,7.49,0,0,1-1.33,4.11l-22,35.21L227,344.8a7.2,7.2,0,0,1,1.19,3.71c0,5.69-8.07,10.19-13.76,10.19-2.12,0-4.11-.66-4.9-2.12Z"/><path d="M245.35,357.9c-4.5,0-9-2.11-9-6.35V267.36c0-4.36,5.16-6.22,10.32-6.22S257,263,257,267.36V339.9h30.18c4,0,5.95,4.5,5.95,9s-2,9-5.95,9Z"/><path d="M341.18,332c0-16-42-13.24-42-44.21,0-19.86,17.34-27.4,33.89-27.4,7,0,26.34,1.32,26.34,11.65,0,3.57-2.38,10.85-8.21,10.85-4.76,0-7.28-5-18.13-5-9.4,0-13.24,3.84-13.24,7.94,0,13.24,42,10.73,42,44.08,0,19.06-13.9,29.39-33.09,29.39-17.34,0-31.9-8.47-31.9-17.21,0-4.5,4-11.12,9-11.12,6.22,0,10.19,9.8,22.5,9.8C334.43,340.7,341.18,338.31,341.18,332Z"/></g></svg>