<?xml version="1.0" ?><svg viewBox="0 0 512 512" xmlns="http://www.w3.org/2000/svg"><title/><g data-name="1" id="_1"><path d="M381.43,450H152.56a50.17,50.17,0,0,1-50.11-50.11V98.11A50.17,50.17,0,0,1,152.56,48h150.1a15,15,0,0,1,10.61,4.39L427.15,166.27a15,15,0,0,1,4.39,10.61v223A50.17,50.17,0,0,1,381.43,450ZM152.56,78a20.13,20.13,0,0,0-20.11,20.11V399.89A20.13,20.13,0,0,0,152.56,420H381.43a20.13,20.13,0,0,0,20.11-20.11V183.09L296.45,78Z"/><path d="M416.54,191.88H337.77a50.17,50.17,0,0,1-50.11-50.11V63a15,15,0,0,1,30,0v78.77a20.13,20.13,0,0,0,20.11,20.11h78.77a15,15,0,1,1,0,30Z"/><path d="M204.26,339.9h36c4,0,6.22,4.77,6.22,9s-2.25,9-6.22,9H183.87c-4.24,0-6-2.25-6-5.42a15.38,15.38,0,0,1,2.25-7.28l37.33-66.06H186.78c-4,0-6.22-4.23-6.22-9,0-4.36,1.85-9,6.22-9h51.1c4,0,6,2.25,6,5.43a15.73,15.73,0,0,1-2.25,7.28Z"/><path d="M254.82,267.36c0-4.36,5.16-6.22,10.32-6.22s10.33,1.86,10.33,6.22v84.19c0,4.24-5.16,6.35-10.33,6.35s-10.32-2.11-10.32-6.35Z"/><path d="M289.76,267.36c0-3.31,3.05-6.22,7.68-6.22h27.4c17.47,0,31.24,8.21,31.24,30.45v.66c0,22.24-14.3,30.71-32.56,30.71H310.41v28.59c0,4.24-5.16,6.35-10.32,6.35s-10.33-2.11-10.33-6.35Zm20.65,11.78v27.93h13.11c7.41,0,11.91-4.23,11.91-13.23v-1.46c0-9-4.5-13.24-11.91-13.24Z"/></g></svg>